<svg xmlns="http://www.w3.org/2000/svg" xmlns:xlink="http://www.w3.org/1999/xlink" width="2000" zoomAndPan="magnify" viewBox="0 0 1500 1499.999933" height="2000" preserveAspectRatio="xMidYMid meet" version="1.0"><defs><g/><clipPath id="4da93cb0a0"><rect x="0" width="1434" y="0" height="625"/></clipPath></defs><g transform="matrix(1, 0, 0, 1, 44, 437)"><g clip-path="url(#4da93cb0a0)"><g fill="#ffbd59" fill-opacity="1"><g transform="translate(0.61854, 493.579677)"><g><path d="M 137.75 -28.59375 C 137.75 -18.882812 137.398438 -12.125 136.703125 -8.3125 C 136.015625 -4.5 133.675781 -2.160156 129.6875 -1.296875 C 125.707031 -0.429688 119.035156 0 109.671875 0 L 90.96875 0 C 86.113281 -0.34375 82.734375 -1.46875 80.828125 -3.375 C 78.921875 -5.28125 77.625 -8.660156 76.9375 -13.515625 C 76.9375 -15.242188 76.847656 -18.535156 76.671875 -23.390625 C 76.492188 -28.242188 76.40625 -34.65625 76.40625 -42.625 L 76.40625 -120.078125 C 77.101562 -130.816406 75.890625 -141.90625 72.765625 -153.34375 L 50.421875 -166.859375 C 47.648438 -168.242188 46.265625 -170.664062 46.265625 -174.125 C 46.265625 -177.59375 47.648438 -180.019531 50.421875 -181.40625 L 61.859375 -188.6875 C 59.429688 -196.3125 57.175781 -202.804688 55.09375 -208.171875 C 53.019531 -213.546875 51.460938 -217.617188 50.421875 -220.390625 L 10.390625 -336.3125 C 9.359375 -339.425781 8.40625 -342.457031 7.53125 -345.40625 C 6.664062 -348.351562 5.890625 -351.210938 5.203125 -353.984375 C 4.847656 -356.054688 5.273438 -358.046875 6.484375 -359.953125 C 7.703125 -361.859375 9.351562 -362.988281 11.4375 -363.34375 C 29.101562 -365.414062 46.082031 -365.414062 62.375 -363.34375 C 67.226562 -362.300781 70.691406 -358.488281 72.765625 -351.90625 C 74.503906 -347.75 76.328125 -342.722656 78.234375 -336.828125 C 80.140625 -330.929688 82.304688 -324.347656 84.734375 -317.078125 C 85.421875 -313.953125 87.0625 -308.40625 89.65625 -300.4375 C 92.257812 -292.46875 94.253906 -286.234375 95.640625 -281.734375 C 96.679688 -278.265625 98.066406 -274.796875 99.796875 -271.328125 C 101.535156 -267.867188 103.789062 -266.140625 106.5625 -266.140625 C 110.019531 -266.140625 112.269531 -268.21875 113.3125 -272.375 C 114.695312 -276.1875 116.082031 -280.171875 117.46875 -284.328125 C 118.851562 -288.484375 120.414062 -293.335938 122.15625 -298.890625 C 126.65625 -313.085938 130.378906 -324.78125 133.328125 -333.96875 C 136.273438 -343.15625 138.613281 -350 140.34375 -354.5 C 142.425781 -360.039062 146.410156 -363.160156 152.296875 -363.859375 C 161.648438 -363.859375 170.140625 -363.859375 177.765625 -363.859375 C 185.390625 -363.859375 191.972656 -363.6875 197.515625 -363.34375 C 200.640625 -363.34375 203.238281 -362.128906 205.3125 -359.703125 C 207.050781 -357.273438 207.660156 -354.585938 207.140625 -351.640625 C 206.617188 -348.691406 205.492188 -345.140625 203.765625 -340.984375 C 193.367188 -310.492188 183.664062 -282.507812 174.65625 -257.03125 C 165.644531 -231.5625 157.671875 -208.609375 150.734375 -188.171875 L 161.65625 -181.40625 C 164.425781 -180.019531 165.8125 -177.59375 165.8125 -174.125 C 165.8125 -170.664062 164.425781 -168.242188 161.65625 -166.859375 L 139.3125 -153.859375 C 138.269531 -148.660156 137.75 -142.941406 137.75 -136.703125 C 138.09375 -83.679688 138.09375 -47.644531 137.75 -28.59375 Z M 223 -333.703125 C 224.726562 -331.285156 225.332031 -328.601562 224.8125 -325.65625 C 224.289062 -322.707031 223.164062 -319.15625 221.4375 -315 C 212.769531 -288.664062 204.453125 -264.148438 196.484375 -241.453125 C 188.515625 -218.753906 181.238281 -198.046875 174.65625 -179.328125 C 173.613281 -183.140625 171.535156 -186.085938 168.421875 -188.171875 L 162.171875 -192.328125 C 169.109375 -211.734375 176.820312 -233.648438 185.3125 -258.078125 C 193.800781 -282.503906 202.894531 -309.101562 212.59375 -337.875 C 214.332031 -337.875 216.148438 -337.613281 218.046875 -337.09375 C 219.953125 -336.570312 221.601562 -335.441406 223 -333.703125 Z M 108.640625 -283.8125 C 108.296875 -282.425781 107.6875 -281.734375 106.8125 -281.734375 C 105.945312 -281.734375 105.171875 -282.425781 104.484375 -283.8125 L 87.84375 -337.34375 C 90.269531 -337.34375 93.5625 -337.253906 97.71875 -337.078125 C 101.875 -336.910156 104.644531 -334.921875 106.03125 -331.109375 L 115.390625 -306.15625 Z M 187.125 -154.90625 C 190.25 -153.507812 191.8125 -151.253906 191.8125 -148.140625 C 191.8125 -144.671875 190.25 -142.070312 187.125 -140.34375 L 165.296875 -127.875 C 164.253906 -122.675781 163.734375 -116.957031 163.734375 -110.71875 C 164.078125 -57.695312 164.078125 -21.65625 163.734375 -2.59375 C 163.734375 8.832031 161.828125 16.453125 158.015625 20.265625 C 154.203125 24.078125 146.753906 25.984375 135.671875 25.984375 L 116.953125 25.984375 C 112.097656 25.640625 108.71875 24.515625 106.8125 22.609375 C 104.90625 20.703125 103.609375 17.320312 102.921875 12.46875 L 102.921875 9.359375 L 109.671875 9.359375 C 122.148438 9.359375 130.988281 8.316406 136.1875 6.234375 C 141.382812 4.160156 144.503906 0.351562 145.546875 -5.1875 C 146.585938 -10.738281 147.109375 -18.539062 147.109375 -28.59375 C 147.453125 -47.644531 147.453125 -83.679688 147.109375 -136.703125 C 147.109375 -138.785156 147.109375 -140.78125 147.109375 -142.6875 C 147.109375 -144.59375 147.28125 -146.410156 147.625 -148.140625 C 162.175781 -156.109375 169.625 -160.613281 169.96875 -161.65625 Z M 187.125 -154.90625 "/></g></g></g><g fill="#ffbd59" fill-opacity="1"><g transform="translate(192.940474, 493.579677)"><g><path d="M 210 -201.15625 L 210 -270.296875 C 210 -284.160156 208.003906 -298.019531 204.015625 -311.875 C 200.035156 -325.738281 192.5 -337.695312 181.40625 -347.75 C 170.664062 -358.144531 158.273438 -364.898438 144.234375 -368.015625 C 130.203125 -371.128906 112.96875 -371.128906 92.53125 -368.015625 C 86.289062 -366.972656 80.050781 -364.203125 73.8125 -359.703125 C 43.664062 -337.867188 29.109375 -311.703125 30.140625 -281.203125 C 30.140625 -273.929688 30.226562 -263.535156 30.40625 -250.015625 C 30.582031 -236.503906 30.492188 -220.21875 30.140625 -201.15625 L 9.359375 -189.203125 C 6.585938 -187.472656 5.203125 -184.875 5.203125 -181.40625 C 5.203125 -178.289062 6.585938 -175.863281 9.359375 -174.125 L 30.140625 -162.171875 L 30.140625 -86.28125 C 30.140625 -69.300781 33.085938 -55.441406 38.984375 -44.703125 C 47.296875 -29.109375 58.296875 -17.238281 71.984375 -9.09375 C 85.679688 -0.945312 100.410156 3.296875 116.171875 3.640625 C 131.941406 3.984375 147.191406 0.257812 161.921875 -7.53125 C 176.648438 -15.332031 189.210938 -27.550781 199.609375 -44.1875 C 200.992188 -46.613281 202.117188 -48.863281 202.984375 -50.9375 C 203.847656 -53.019531 204.453125 -55.273438 204.796875 -57.703125 C 206.878906 -68.441406 208.351562 -77.1875 209.21875 -83.9375 C 210.082031 -90.695312 210.515625 -95.460938 210.515625 -98.234375 L 210 -162.171875 L 230.796875 -174.125 C 233.566406 -175.863281 234.953125 -178.289062 234.953125 -181.40625 C 234.953125 -185.21875 233.566406 -187.816406 230.796875 -189.203125 Z M 141.90625 -76.9375 C 138.78125 -70 133.925781 -65.40625 127.34375 -63.15625 C 120.757812 -60.90625 114.257812 -61.078125 107.84375 -63.671875 C 101.4375 -66.273438 96.847656 -71.039062 94.078125 -77.96875 C 93.046875 -80.050781 92.351562 -83 92 -86.8125 C 91.65625 -90.625 91.484375 -95.128906 91.484375 -100.328125 L 91.484375 -269.78125 C 91.484375 -273.9375 91.484375 -277.398438 91.484375 -280.171875 C 91.484375 -282.941406 91.65625 -285.019531 92 -286.40625 C 93.382812 -295.414062 97.628906 -301.648438 104.734375 -305.109375 C 111.835938 -308.578125 119.203125 -309.1875 126.828125 -306.9375 C 134.453125 -304.6875 139.648438 -299.226562 142.421875 -290.5625 C 143.117188 -288.132812 143.722656 -285.445312 144.234375 -282.5 C 144.753906 -279.5625 145.015625 -276.1875 145.015625 -272.375 L 145.015625 -96.6875 C 145.015625 -88.363281 143.976562 -81.78125 141.90625 -76.9375 Z M 219.359375 -270.296875 C 219.359375 -276.179688 219.097656 -281.894531 218.578125 -287.4375 C 218.054688 -292.988281 217.101562 -298.363281 215.71875 -303.5625 C 215.375 -305.988281 215.71875 -307.546875 216.75 -308.234375 C 217.789062 -308.929688 219.003906 -308.066406 220.390625 -305.640625 C 226.285156 -296.628906 230.359375 -286.75 232.609375 -276 C 234.859375 -265.257812 235.984375 -254.691406 235.984375 -244.296875 L 235.984375 -197 L 219.359375 -206.359375 Z M 101.359375 -285.375 C 102.054688 -292.300781 105.347656 -296.457031 111.234375 -297.84375 C 117.128906 -299.226562 122.328125 -298.535156 126.828125 -295.765625 C 121.972656 -291.953125 119.03125 -286.753906 118 -280.171875 C 117.644531 -278.785156 117.46875 -276.707031 117.46875 -273.9375 C 117.46875 -271.164062 117.46875 -267.695312 117.46875 -263.53125 L 117.46875 -94.078125 C 117.46875 -82.992188 118.335938 -75.375 120.078125 -71.21875 C 116.609375 -70.863281 113.226562 -71.46875 109.9375 -73.03125 C 106.644531 -74.59375 104.132812 -77.453125 102.40625 -81.609375 C 101.363281 -83.691406 100.84375 -89.929688 100.84375 -100.328125 L 100.84375 -269.78125 C 100.84375 -272.894531 100.84375 -275.40625 100.84375 -277.3125 C 100.84375 -279.21875 101.015625 -281.90625 101.359375 -285.375 Z M 256.78125 -163.21875 C 259.550781 -161.832031 260.9375 -159.234375 260.9375 -155.421875 C 260.9375 -152.296875 259.550781 -149.867188 256.78125 -148.140625 L 235.984375 -136.1875 L 236.5 -96.6875 C 236.5 -71.382812 232.597656 -50.328125 224.796875 -33.515625 C 217.003906 -16.710938 206.523438 -3.804688 193.359375 5.203125 C 180.191406 14.210938 165.460938 19.582031 149.171875 21.3125 C 132.890625 23.039062 116.429688 21.65625 99.796875 17.15625 C 97.722656 16.457031 96.941406 15.328125 97.453125 13.765625 C 97.972656 12.210938 99.273438 11.609375 101.359375 11.953125 C 120.765625 14.378906 140.171875 11.519531 159.578125 3.375 C 178.984375 -4.769531 194.925781 -18.890625 207.40625 -38.984375 C 211.90625 -47.296875 215.109375 -57.253906 217.015625 -68.859375 C 218.921875 -80.472656 219.875 -90.265625 219.875 -98.234375 L 219.359375 -156.984375 L 235.46875 -166.328125 C 238.238281 -168.066406 240.488281 -169.800781 242.21875 -171.53125 Z M 256.78125 -163.21875 "/></g></g></g><g fill="#ffbd59" fill-opacity="1"><g transform="translate(416.44989, 493.579677)"><g/></g></g><g fill="#ffbd59" fill-opacity="1"><g transform="translate(494.937619, 493.579677)"><g><path d="M 199.609375 -40.03125 C 191.285156 -27.894531 183.3125 -18.878906 175.6875 -12.984375 C 168.0625 -7.097656 159.222656 -3.285156 149.171875 -1.546875 C 139.128906 0.179688 126.484375 0.867188 111.234375 0.515625 C 95.984375 0.171875 76.578125 0 53.015625 0 L 50.9375 0 C 46.082031 0 42.617188 -1.039062 40.546875 -3.125 C 38.460938 -5.195312 37.25 -8.222656 36.90625 -12.203125 C 36.5625 -16.191406 36.390625 -22.867188 36.390625 -32.234375 L 36.390625 -163.21875 L 15.59375 -175.171875 C 12.820312 -176.898438 11.4375 -179.328125 11.4375 -182.453125 C 11.4375 -185.566406 12.820312 -187.988281 15.59375 -189.71875 L 36.390625 -201.6875 L 36.390625 -335.78125 C 36.390625 -339.59375 36.472656 -343.054688 36.640625 -346.171875 C 36.816406 -349.296875 36.90625 -351.898438 36.90625 -353.984375 C 37.59375 -360.222656 40.363281 -363.6875 45.21875 -364.375 C 50.070312 -365.070312 54.925781 -365.421875 59.78125 -365.421875 C 84.03125 -365.765625 102.304688 -365.9375 114.609375 -365.9375 C 126.910156 -365.9375 133.238281 -365.9375 133.59375 -365.9375 C 152.644531 -365.9375 168.582031 -359.351562 181.40625 -346.1875 C 194.226562 -333.363281 202.71875 -322.015625 206.875 -312.140625 C 211.03125 -302.265625 213.109375 -291.4375 213.109375 -279.65625 L 213.109375 -201.6875 L 233.90625 -189.71875 C 236.675781 -187.988281 238.0625 -185.566406 238.0625 -182.453125 C 238.0625 -179.328125 236.675781 -176.898438 233.90625 -175.171875 L 213.109375 -163.21875 L 213.109375 -88.890625 C 213.109375 -70.523438 208.609375 -54.238281 199.609375 -40.03125 Z M 98.234375 -90.4375 C 98.234375 -84.207031 98.582031 -78.664062 99.28125 -73.8125 C 99.976562 -68.957031 102.75 -65.492188 107.59375 -63.421875 C 114.175781 -60.992188 120.847656 -60.644531 127.609375 -62.375 C 134.367188 -64.101562 140.085938 -67.476562 144.765625 -72.5 C 149.441406 -77.53125 151.78125 -83.335938 151.78125 -89.921875 L 151.78125 -262.5 C 151.78125 -265.96875 151.78125 -268.828125 151.78125 -271.078125 C 151.78125 -273.328125 151.609375 -275.144531 151.265625 -276.53125 C 149.878906 -293.507812 140.695312 -302.519531 123.71875 -303.5625 C 114.007812 -304.25 107.25 -303.117188 103.4375 -300.171875 C 99.625 -297.234375 97.890625 -290.910156 98.234375 -281.203125 Z M 222.46875 -279.65625 C 222.46875 -283.113281 222.296875 -286.488281 221.953125 -289.78125 C 221.609375 -293.070312 221.085938 -296.109375 220.390625 -298.890625 C 220.046875 -300.617188 220.21875 -301.742188 220.90625 -302.265625 C 221.601562 -302.785156 222.644531 -302.351562 224.03125 -300.96875 C 229.925781 -292.644531 233.910156 -284.84375 235.984375 -277.5625 C 238.066406 -270.289062 239.109375 -262.320312 239.109375 -253.65625 L 239.109375 -197.515625 L 238.59375 -197.515625 L 222.46875 -206.875 Z M 124.234375 -71.21875 C 115.910156 -69.132812 111.054688 -70 109.671875 -73.8125 C 108.285156 -77.625 107.59375 -83.164062 107.59375 -90.4375 L 107.59375 -281.203125 C 107.59375 -287.796875 108.285156 -291.785156 109.671875 -293.171875 C 111.054688 -294.554688 115.5625 -294.898438 123.1875 -294.203125 C 131.507812 -293.859375 136.882812 -290.914062 139.3125 -285.375 C 133.757812 -283.289062 129.859375 -281.035156 127.609375 -278.609375 C 125.359375 -276.179688 124.234375 -271.15625 124.234375 -263.53125 Z M 259.890625 -163.734375 C 262.671875 -162.003906 264.0625 -159.578125 264.0625 -156.453125 C 264.0625 -153.335938 262.671875 -150.914062 259.890625 -149.1875 L 238.0625 -137.21875 L 238.0625 -80.5625 C 238.0625 -71.207031 236.066406 -60.722656 232.078125 -49.109375 C 228.097656 -37.503906 220.566406 -24.425781 209.484375 -9.875 C 203.242188 -1.90625 197.265625 4.503906 191.546875 9.359375 C 185.828125 14.210938 178.722656 17.765625 170.234375 20.015625 C 161.742188 22.265625 150.304688 23.734375 135.921875 24.421875 C 121.546875 25.117188 102.578125 25.46875 79.015625 25.46875 L 76.9375 25.46875 C 71.738281 25.46875 68.269531 24.601562 66.53125 22.875 C 64.101562 20.445312 62.71875 15.941406 62.375 9.359375 C 83.507812 9.359375 101.351562 9.53125 115.90625 9.875 C 130.46875 10.21875 142.945312 9.4375 153.34375 7.53125 C 163.738281 5.625 173.09375 1.46875 181.40625 -4.9375 C 189.726562 -11.34375 198.394531 -21.304688 207.40625 -34.828125 C 212.601562 -42.796875 216.410156 -51.367188 218.828125 -60.546875 C 221.253906 -69.734375 222.46875 -79.179688 222.46875 -88.890625 L 222.46875 -158.015625 L 238.59375 -166.859375 C 241.363281 -168.585938 243.265625 -170.492188 244.296875 -172.578125 Z M 259.890625 -163.734375 "/></g></g></g><g fill="#ffbd59" fill-opacity="1"><g transform="translate(721.565802, 493.579677)"><g><path d="M 203.234375 -31.1875 C 206.015625 -15.9375 205.320312 -6.582031 201.15625 -3.125 C 199.769531 -1.738281 195.613281 -0.785156 188.6875 -0.265625 C 181.757812 0.253906 174.828125 0.425781 167.890625 0.25 C 160.960938 0.0820312 156.804688 0 155.421875 0 C 150.566406 -0.34375 147.097656 -1.554688 145.015625 -3.640625 C 142.597656 -5.710938 141.039062 -8.914062 140.34375 -13.25 C 139.65625 -17.582031 138.789062 -23.910156 137.75 -32.234375 C 137.394531 -36.035156 137.046875 -39.492188 136.703125 -42.609375 C 136.359375 -45.734375 135.835938 -48.335938 135.140625 -50.421875 C 135.140625 -52.148438 134.707031 -55.441406 133.84375 -60.296875 C 132.976562 -65.148438 131.242188 -69.828125 128.640625 -74.328125 C 126.046875 -78.835938 121.628906 -81.09375 115.390625 -81.09375 C 114.003906 -81.4375 112.960938 -81.609375 112.265625 -81.609375 C 111.578125 -81.609375 111.234375 -81.609375 111.234375 -81.609375 C 102.222656 -81.609375 95.460938 -81.175781 90.953125 -80.3125 C 86.453125 -79.445312 83.25 -77.109375 81.34375 -73.296875 C 79.4375 -69.484375 77.96875 -63.070312 76.9375 -54.0625 C 76.582031 -51.976562 75.796875 -47.46875 74.578125 -40.53125 C 73.367188 -33.601562 71.726562 -24.078125 69.65625 -11.953125 C 68.269531 -4.328125 63.9375 -0.515625 56.65625 -0.515625 C 40.71875 -0.171875 27.203125 -0.171875 16.109375 -0.515625 C 8.835938 -0.867188 5.285156 -3.46875 5.453125 -8.3125 C 5.628906 -13.164062 6.238281 -19.40625 7.28125 -27.03125 C 13.519531 -62.375 18.539062 -91.132812 22.34375 -113.3125 C 26.15625 -135.488281 28.753906 -151.082031 30.140625 -160.09375 C 30.140625 -160.789062 30.226562 -161.484375 30.40625 -162.171875 C 30.582031 -162.867188 30.671875 -163.390625 30.671875 -163.734375 L 12.46875 -174.65625 C 9.351562 -176.382812 7.796875 -178.804688 7.796875 -181.921875 C 7.796875 -185.390625 9.351562 -187.816406 12.46875 -189.203125 L 37.421875 -203.765625 C 43.316406 -235.984375 48.171875 -263.789062 51.984375 -287.1875 C 55.796875 -310.582031 58.914062 -329.378906 61.34375 -343.578125 C 63.070312 -352.242188 65.40625 -357.789062 68.34375 -360.21875 C 71.289062 -362.644531 76.925781 -363.859375 85.25 -363.859375 L 132.546875 -363.859375 C 138.085938 -363.160156 141.898438 -362.117188 143.984375 -360.734375 C 145.710938 -359.003906 147.179688 -356.0625 148.390625 -351.90625 C 149.609375 -347.75 150.566406 -343.585938 151.265625 -339.421875 C 158.535156 -296.453125 164.078125 -263.53125 167.890625 -240.65625 C 171.703125 -217.789062 173.78125 -205.316406 174.125 -203.234375 L 198.5625 -189.203125 C 201.332031 -187.472656 202.71875 -185.046875 202.71875 -181.921875 C 202.71875 -178.804688 201.332031 -176.382812 198.5625 -174.65625 L 180.890625 -164.25 C 187.816406 -121.976562 193.1875 -89.753906 197 -67.578125 C 200.8125 -45.398438 202.890625 -33.269531 203.234375 -31.1875 Z M 174.125 -334.234375 C 175.863281 -332.492188 177.335938 -329.546875 178.546875 -325.390625 C 179.765625 -321.234375 180.71875 -317.078125 181.40625 -312.921875 C 185.914062 -286.234375 189.816406 -263.359375 193.109375 -244.296875 C 196.398438 -225.242188 198.910156 -210.171875 200.640625 -199.078125 C 197.867188 -200.816406 194.921875 -202.640625 191.796875 -204.546875 C 188.679688 -206.453125 185.738281 -208.097656 182.96875 -209.484375 C 182.269531 -214.328125 180.878906 -222.46875 178.796875 -233.90625 C 176.722656 -245.34375 174.128906 -260.765625 171.015625 -280.171875 C 169.628906 -288.484375 168.066406 -297.40625 166.328125 -306.9375 C 164.597656 -316.46875 162.867188 -326.601562 161.140625 -337.34375 C 165.296875 -337.34375 168.148438 -337.082031 169.703125 -336.5625 C 171.265625 -336.039062 172.738281 -335.265625 174.125 -334.234375 Z M 121.625 -145.546875 C 121.625 -146.234375 121.625 -147.269531 121.625 -148.65625 C 121.625 -150.039062 121.453125 -151.945312 121.109375 -154.375 C 120.765625 -157.5 120.070312 -162.003906 119.03125 -167.890625 C 117.988281 -173.785156 116.945312 -179.332031 115.90625 -184.53125 C 114.875 -189.726562 114.359375 -192.5 114.359375 -192.84375 C 114.003906 -194.925781 112.960938 -197.523438 111.234375 -200.640625 C 109.847656 -203.410156 107.941406 -204.535156 105.515625 -204.015625 C 103.085938 -203.492188 101.359375 -202.367188 100.328125 -200.640625 C 98.585938 -195.785156 96.9375 -189.375 95.375 -181.40625 C 93.820312 -173.4375 92.695312 -163.90625 92 -152.8125 C 91.65625 -151.425781 91.484375 -150.128906 91.484375 -148.921875 C 91.484375 -147.710938 91.484375 -146.757812 91.484375 -146.0625 C 91.484375 -143.632812 93.90625 -141.988281 98.75 -141.125 C 103.601562 -140.257812 108.539062 -140.257812 113.5625 -141.125 C 118.59375 -141.988281 121.28125 -143.460938 121.625 -145.546875 Z M 111.234375 -150.734375 C 110.546875 -150.390625 108.8125 -150.21875 106.03125 -150.21875 L 101.359375 -150.21875 L 101.359375 -152.296875 C 102.054688 -159.234375 102.75 -165.382812 103.4375 -170.75 C 104.132812 -176.125 104.828125 -180.71875 105.515625 -184.53125 C 105.859375 -183.832031 106.03125 -183.132812 106.03125 -182.4375 C 106.03125 -181.75 106.207031 -180.882812 106.5625 -179.84375 C 107.25 -175.6875 108.113281 -170.921875 109.15625 -165.546875 C 110.195312 -160.179688 110.890625 -156.113281 111.234375 -153.34375 Z M 233.90625 -5.203125 C 235.289062 2.421875 235.984375 8.140625 235.984375 11.953125 C 235.984375 15.765625 234.945312 18.535156 232.875 20.265625 C 230.789062 22.003906 228.445312 23.304688 225.84375 24.171875 C 223.25 25.035156 218.742188 25.550781 212.328125 25.71875 C 205.921875 25.894531 195.613281 25.984375 181.40625 25.984375 C 176.90625 25.984375 173.441406 24.769531 171.015625 22.34375 C 168.585938 20.269531 166.851562 15.941406 165.8125 9.359375 C 166.507812 9.359375 167.375 9.441406 168.40625 9.609375 C 169.445312 9.785156 170.488281 9.875 171.53125 9.875 C 183.65625 9.875 192.835938 9.523438 199.078125 8.828125 C 205.316406 8.140625 209.992188 6.0625 213.109375 2.59375 C 214.847656 0.519531 215.628906 -3.457031 215.453125 -9.34375 C 215.285156 -15.238281 214.332031 -23.039062 212.59375 -32.75 C 212.25 -33.789062 211.816406 -36.128906 211.296875 -39.765625 C 210.773438 -43.398438 209.820312 -49.550781 208.4375 -58.21875 C 206.707031 -68.269531 204.367188 -81.785156 201.421875 -98.765625 C 198.472656 -115.742188 195.09375 -135.84375 191.28125 -159.0625 L 203.234375 -166.328125 C 206.359375 -168.410156 208.785156 -171.007812 210.515625 -174.125 L 229.75 -163.21875 C 232.519531 -161.488281 233.90625 -159.0625 233.90625 -155.9375 C 233.90625 -152.820312 232.519531 -150.394531 229.75 -148.65625 L 211.5625 -138.265625 C 218.488281 -95.984375 223.859375 -63.753906 227.671875 -41.578125 C 231.484375 -19.398438 233.5625 -7.273438 233.90625 -5.203125 Z M 114.875 -71.21875 C 115.914062 -71.21875 117.472656 -70.609375 119.546875 -69.390625 C 121.628906 -68.179688 123.363281 -63.59375 124.75 -55.625 C 117.820312 -55.625 112.796875 -54.925781 109.671875 -53.53125 C 106.554688 -52.144531 104.390625 -49.546875 103.171875 -45.734375 C 101.960938 -41.929688 100.835938 -36.039062 99.796875 -28.0625 C 99.453125 -25.988281 99.019531 -23.046875 98.5 -19.234375 C 97.976562 -15.421875 96.679688 -7.625 94.609375 4.15625 C 93.910156 7.96875 92.085938 12.472656 89.140625 17.671875 C 86.203125 22.867188 80.398438 25.46875 71.734375 25.46875 C 63.765625 25.46875 58.21875 25.550781 55.09375 25.71875 C 51.976562 25.894531 47.648438 25.8125 42.109375 25.46875 C 36.554688 25.125 33.347656 23.476562 32.484375 20.53125 C 31.617188 17.582031 31.359375 13.859375 31.703125 9.359375 L 34.3125 9.359375 C 37.769531 9.359375 41.40625 9.359375 45.21875 9.359375 C 49.03125 9.359375 52.84375 9.1875 56.65625 8.84375 C 69.476562 8.84375 76.929688 2.601562 79.015625 -9.875 L 83.171875 -32.234375 C 83.859375 -38.117188 84.546875 -42.707031 85.234375 -46 C 85.929688 -49.289062 86.28125 -51.628906 86.28125 -53.015625 C 86.632812 -55.097656 87.15625 -58.21875 87.84375 -62.375 C 88.539062 -66.53125 89.582031 -69.128906 90.96875 -70.171875 C 92.007812 -70.867188 94.609375 -71.300781 98.765625 -71.46875 C 102.921875 -71.644531 107.078125 -71.734375 111.234375 -71.734375 L 113.3125 -71.734375 L 113.828125 -71.21875 Z M 114.875 -71.21875 "/></g></g></g><g fill="#ffbd59" fill-opacity="1"><g transform="translate(920.125327, 493.579677)"><g><path d="M 284.328125 -312.921875 C 286.054688 -323.660156 287.351562 -332.0625 288.21875 -338.125 C 289.09375 -344.1875 289.53125 -347.910156 289.53125 -349.296875 C 290.570312 -359.003906 286.585938 -363.859375 277.578125 -363.859375 C 273.066406 -364.203125 268.210938 -364.375 263.015625 -364.375 C 257.816406 -364.375 252.273438 -364.375 246.390625 -364.375 C 238.066406 -364.03125 232.78125 -362.90625 230.53125 -361 C 228.28125 -359.09375 226.460938 -354.15625 225.078125 -346.1875 C 224.378906 -342.71875 223.597656 -338.726562 222.734375 -334.21875 C 221.867188 -329.71875 221.085938 -324.523438 220.390625 -318.640625 C 218.316406 -302.691406 216.582031 -290.125 215.1875 -280.9375 C 213.800781 -271.757812 212.242188 -261.800781 210.515625 -251.0625 C 209.828125 -246.90625 207.75 -244.648438 204.28125 -244.296875 C 200.8125 -243.953125 198.382812 -245.859375 197 -250.015625 C 194.925781 -255.210938 193.890625 -259.203125 193.890625 -261.984375 C 193.191406 -267.179688 192.148438 -274.109375 190.765625 -282.765625 C 189.378906 -291.429688 188.078125 -299.921875 186.859375 -308.234375 C 185.648438 -316.554688 184.703125 -322.796875 184.015625 -326.953125 C 184.015625 -327.992188 183.578125 -331.457031 182.703125 -337.34375 C 181.835938 -343.238281 180.101562 -349.128906 177.5 -355.015625 C 174.90625 -360.910156 171.007812 -363.859375 165.8125 -363.859375 C 150.5625 -364.546875 137.738281 -364.546875 127.34375 -363.859375 C 120.070312 -363.859375 115.914062 -360.21875 114.875 -352.9375 C 113.832031 -347.738281 112.617188 -340.460938 111.234375 -331.109375 C 109.847656 -321.753906 108.113281 -310.144531 106.03125 -296.28125 C 106.03125 -294.550781 105.597656 -290.828125 104.734375 -285.109375 C 103.867188 -279.390625 103.003906 -273.320312 102.140625 -266.90625 C 101.273438 -260.5 100.492188 -255.390625 99.796875 -251.578125 C 99.453125 -248.460938 98.410156 -245.953125 96.671875 -244.046875 C 94.941406 -242.140625 93.210938 -241.359375 91.484375 -241.703125 C 88.015625 -242.742188 85.765625 -246.035156 84.734375 -251.578125 C 84.035156 -255.734375 83.164062 -261.101562 82.125 -267.6875 C 81.082031 -274.28125 80.128906 -280.691406 79.265625 -286.921875 C 78.398438 -293.160156 77.796875 -297.492188 77.453125 -299.921875 L 68.609375 -352.421875 C 68.265625 -356.578125 67.398438 -359.4375 66.015625 -361 C 64.628906 -362.5625 61.679688 -363.515625 57.171875 -363.859375 C 52.671875 -364.203125 45.566406 -364.375 35.859375 -364.375 L 27.546875 -364.375 C 17.148438 -364.375 10.566406 -362.988281 7.796875 -360.21875 C 5.023438 -357.445312 4.675781 -350.515625 6.75 -339.421875 C 10.21875 -319.328125 13.859375 -298.363281 17.671875 -276.53125 C 21.484375 -254.695312 25.640625 -228.878906 30.140625 -199.078125 L 12.46875 -189.203125 C 9.695312 -187.472656 8.3125 -185.046875 8.3125 -181.921875 C 8.3125 -178.460938 9.695312 -175.863281 12.46875 -174.125 L 36.90625 -160.09375 C 40.71875 -136.53125 44.179688 -115.046875 47.296875 -95.640625 C 50.421875 -76.234375 52.847656 -61.679688 54.578125 -51.984375 L 61.859375 -11.953125 C 63.242188 -4.328125 67.488281 -0.34375 74.59375 0 C 81.695312 0.34375 89.0625 0.515625 96.6875 0.515625 C 105 0.515625 111.0625 0.0820312 114.875 -0.78125 C 118.6875 -1.644531 121.367188 -3.894531 122.921875 -7.53125 C 124.484375 -11.175781 125.785156 -16.984375 126.828125 -24.953125 C 127.867188 -31.878906 129.425781 -42.445312 131.5 -56.65625 C 133.582031 -70.863281 136.007812 -88.535156 138.78125 -109.671875 C 140.519531 -118.335938 142.253906 -123.535156 143.984375 -125.265625 C 145.710938 -127.003906 147.53125 -127.785156 149.4375 -127.609375 C 151.34375 -127.429688 152.816406 -126.476562 153.859375 -124.75 C 154.898438 -121.28125 155.9375 -117.207031 156.96875 -112.53125 C 158.007812 -107.851562 158.878906 -102.570312 159.578125 -96.6875 C 160.273438 -92.519531 161.226562 -86.972656 162.4375 -80.046875 C 163.644531 -73.117188 165.117188 -64.457031 166.859375 -54.0625 C 169.972656 -36.726562 172.050781 -22.519531 173.09375 -11.4375 C 174.132812 -4.15625 178.289062 -0.34375 185.5625 0 C 191.457031 0.34375 197.347656 0.515625 203.234375 0.515625 C 209.128906 0.515625 214.847656 0.515625 220.390625 0.515625 C 226.285156 0.171875 230.359375 -1.035156 232.609375 -3.109375 C 234.859375 -5.191406 236.503906 -9.351562 237.546875 -15.59375 C 237.546875 -15.9375 238.148438 -20.179688 239.359375 -28.328125 C 240.578125 -36.472656 242.140625 -46.695312 244.046875 -59 C 245.953125 -71.300781 247.941406 -83.863281 250.015625 -96.6875 C 252.097656 -109.507812 253.914062 -120.941406 255.46875 -130.984375 C 257.03125 -141.035156 257.988281 -147.617188 258.34375 -150.734375 L 259.890625 -160.09375 L 284.328125 -174.125 C 287.097656 -176.207031 288.484375 -178.804688 288.484375 -181.921875 C 288.484375 -184.703125 287.097656 -187.128906 284.328125 -189.203125 L 266.65625 -199.078125 L 267.171875 -203.234375 C 268.210938 -208.785156 270.03125 -220.050781 272.625 -237.03125 C 275.226562 -254.007812 279.128906 -279.304688 284.328125 -312.921875 Z M 80.5625 -338.390625 C 85.414062 -338.046875 88.796875 -337.175781 90.703125 -335.78125 C 92.609375 -334.394531 93.910156 -331.28125 94.609375 -326.4375 C 95.296875 -322.96875 95.898438 -319.585938 96.421875 -316.296875 C 96.941406 -313.003906 97.546875 -309.625 98.234375 -306.15625 L 95.640625 -287.96875 L 94.609375 -273.9375 C 94.253906 -272.195312 93.46875 -271.328125 92.25 -271.328125 C 91.039062 -271.328125 90.265625 -272.195312 89.921875 -273.9375 L 88.359375 -288.484375 C 88.015625 -294.378906 87.0625 -301.394531 85.5 -309.53125 C 83.945312 -317.675781 82.300781 -327.296875 80.5625 -338.390625 Z M 205.3125 -275.5 C 204.96875 -273.757812 204.273438 -272.972656 203.234375 -273.140625 C 202.203125 -273.316406 201.507812 -274.101562 201.15625 -275.5 L 199.078125 -291.09375 C 198.035156 -298.363281 196.992188 -305.378906 195.953125 -312.140625 C 194.921875 -318.898438 194.054688 -324.007812 193.359375 -327.46875 C 193.359375 -329.894531 192.84375 -333.363281 191.8125 -337.875 C 195.96875 -337.875 199.171875 -335.96875 201.421875 -332.15625 C 203.671875 -328.34375 205.488281 -324.09375 206.875 -319.40625 C 208.257812 -314.726562 209.128906 -310.660156 209.484375 -307.203125 L 206.875 -290.046875 Z M 299.921875 -337.875 C 308.929688 -337.875 312.914062 -333.019531 311.875 -323.3125 C 311.875 -321.925781 311.441406 -318.203125 310.578125 -312.140625 C 309.710938 -306.078125 308.414062 -297.671875 306.6875 -286.921875 C 303.21875 -263.703125 300.351562 -244.726562 298.09375 -230 C 295.84375 -215.28125 293.851562 -203.414062 292.125 -194.40625 L 289.53125 -197 L 277.046875 -204.28125 C 278.085938 -210.519531 279.90625 -222.128906 282.5 -239.109375 C 285.101562 -256.085938 288.832031 -280.171875 293.6875 -311.359375 C 294.375 -317.242188 295.0625 -322.265625 295.75 -326.421875 C 296.445312 -330.585938 296.972656 -334.40625 297.328125 -337.875 Z M 310.3125 -163.21875 C 313.09375 -161.132812 314.484375 -158.707031 314.484375 -155.9375 C 314.484375 -152.820312 313.09375 -150.222656 310.3125 -148.140625 L 280.6875 -131.515625 L 279.65625 -124.75 C 279.65625 -124.75 279.046875 -120.675781 277.828125 -112.53125 C 276.617188 -104.394531 275.0625 -94.257812 273.15625 -82.125 C 271.25 -70 269.34375 -57.695312 267.4375 -45.21875 C 265.53125 -32.75 263.882812 -21.832031 262.5 -12.46875 C 261.113281 -3.113281 260.242188 2.597656 259.890625 4.671875 C 258.503906 12.992188 256.507812 18.539062 253.90625 21.3125 C 251.3125 24.082031 246.03125 25.640625 238.0625 25.984375 C 232.519531 26.335938 228.1875 26.515625 225.0625 26.515625 C 221.945312 26.515625 217.445312 26.335938 211.5625 25.984375 C 202.894531 25.640625 198.5625 20.269531 198.5625 9.875 L 220.90625 9.875 C 229.226562 9.53125 235.296875 7.453125 239.109375 3.640625 C 242.921875 -0.171875 245.519531 -6.410156 246.90625 -15.078125 L 268.21875 -154.375 L 289.53125 -166.328125 C 291.957031 -168.066406 293.6875 -169.972656 294.71875 -172.046875 Z M 150.734375 -101.875 C 151.429688 -98.414062 151.78125 -95.992188 151.78125 -94.609375 C 152.46875 -90.441406 153.070312 -85.410156 153.59375 -79.515625 C 154.113281 -73.628906 155.066406 -66.179688 156.453125 -57.171875 C 153.335938 -29.109375 150.738281 -10.050781 148.65625 0 C 147.625 7.96875 146.328125 13.769531 144.765625 17.40625 C 143.203125 21.050781 140.515625 23.304688 136.703125 24.171875 C 132.890625 25.035156 126.828125 25.46875 118.515625 25.46875 C 110.890625 25.46875 104.21875 25.46875 98.5 25.46875 C 92.78125 25.46875 89.226562 21.65625 87.84375 14.03125 C 87.84375 13.34375 87.753906 12.648438 87.578125 11.953125 C 87.410156 11.265625 87.328125 10.742188 87.328125 10.390625 C 89.054688 10.046875 90.703125 9.875 92.265625 9.875 C 93.828125 9.875 95.300781 9.875 96.6875 9.875 C 106.726562 9.875 114.257812 9.09375 119.28125 7.53125 C 124.3125 5.976562 128.039062 2.863281 130.46875 -1.8125 C 132.894531 -6.5 134.800781 -13.691406 136.1875 -23.390625 C 137.570312 -31.703125 139.039062 -42.53125 140.59375 -55.875 C 142.15625 -69.21875 143.804688 -82.128906 145.546875 -94.609375 L 146.578125 -101.875 C 146.929688 -103.613281 147.625 -104.484375 148.65625 -104.484375 C 149.695312 -104.484375 150.390625 -103.613281 150.734375 -101.875 Z M 150.734375 -101.875 "/></g></g></g><g fill="#ffbd59" fill-opacity="1"><g transform="translate(1197.173257, 493.579677)"><g><path d="M 187.125 -333.703125 C 171.1875 -354.148438 151.085938 -364.722656 126.828125 -365.421875 L 108.125 -365.421875 C 92.53125 -365.765625 78.835938 -361.691406 67.046875 -353.203125 C 55.265625 -344.710938 46.082031 -334.054688 39.5 -321.234375 C 32.914062 -308.410156 29.625 -295.414062 29.625 -282.25 C 29.96875 -274.96875 30.140625 -264.484375 30.140625 -250.796875 C 30.140625 -237.109375 30.140625 -220.21875 30.140625 -200.125 L 9.359375 -188.171875 C 6.585938 -186.429688 5.203125 -184.003906 5.203125 -180.890625 C 5.203125 -177.773438 6.585938 -175.347656 9.359375 -173.609375 L 30.140625 -162.171875 L 30.140625 -82.125 C 30.140625 -69.300781 31.351562 -59.945312 33.78125 -54.0625 C 42.101562 -34.65625 54.0625 -20.269531 69.65625 -10.90625 C 85.25 -1.550781 101.1875 3.125 117.46875 3.125 C 127.519531 3.125 137.484375 1.910156 147.359375 -0.515625 C 157.234375 -2.941406 165.984375 -7.273438 173.609375 -13.515625 C 184.003906 -21.828125 191.539062 -30.226562 196.21875 -38.71875 C 200.894531 -47.207031 203.664062 -57.429688 204.53125 -69.390625 C 205.40625 -81.347656 205.582031 -96.507812 205.0625 -114.875 C 204.539062 -133.238281 204.28125 -156.457031 204.28125 -184.53125 C 204.28125 -191.457031 204.101562 -196.566406 203.75 -199.859375 C 203.40625 -203.148438 202.195312 -205.835938 200.125 -207.921875 C 198.039062 -209.992188 194.921875 -211.03125 190.765625 -211.03125 C 188.335938 -211.382812 184.785156 -211.5625 180.109375 -211.5625 C 175.429688 -211.5625 169.628906 -211.5625 162.703125 -211.5625 C 153.691406 -211.5625 147.453125 -211.5625 143.984375 -211.5625 C 140.515625 -211.5625 137.566406 -211.382812 135.140625 -211.03125 C 127.171875 -210.6875 122.84375 -206.53125 122.15625 -198.5625 C 121.800781 -197.175781 121.625 -193.707031 121.625 -188.15625 C 121.625 -182.613281 121.625 -175.335938 121.625 -166.328125 C 121.625 -156.972656 125.785156 -151.773438 134.109375 -150.734375 C 139.992188 -150.046875 143.539062 -146.0625 144.75 -138.78125 C 145.96875 -131.507812 146.054688 -122.675781 145.015625 -112.28125 C 143.984375 -101.882812 142.597656 -91.660156 140.859375 -81.609375 C 140.515625 -81.265625 140 -80.050781 139.3125 -77.96875 C 135.144531 -70.34375 129.769531 -65.40625 123.1875 -63.15625 C 116.601562 -60.90625 110.28125 -61.335938 104.21875 -64.453125 C 98.15625 -67.578125 93.738281 -73.296875 90.96875 -81.609375 C 89.582031 -86.109375 88.539062 -90.785156 87.84375 -95.640625 C 87.15625 -100.492188 86.8125 -105.691406 86.8125 -111.234375 L 86.8125 -256.78125 C 86.8125 -269.257812 88.710938 -279.914062 92.515625 -288.75 C 96.328125 -297.582031 102.738281 -302.691406 111.75 -304.078125 C 120.757812 -305.460938 128.125 -302.691406 133.84375 -295.765625 C 139.5625 -288.835938 142.59375 -281.039062 142.9375 -272.375 C 143.632812 -260.25 143.984375 -251.757812 143.984375 -246.90625 C 143.984375 -242.050781 144.675781 -239.101562 146.0625 -238.0625 C 147.445312 -237.019531 150.394531 -236.328125 154.90625 -235.984375 C 167.375 -235.640625 179.5 -235.640625 191.28125 -235.984375 C 199.25 -236.679688 203.320312 -239.800781 203.5 -245.34375 C 203.675781 -250.882812 203.765625 -257.46875 203.765625 -265.09375 C 203.765625 -276.53125 203.675781 -285.800781 203.5 -292.90625 C 203.320312 -300.007812 202.109375 -306.59375 199.859375 -312.65625 C 197.609375 -318.71875 193.363281 -325.734375 187.125 -333.703125 Z M 213.109375 -307.71875 C 219.347656 -299.40625 223.679688 -291.257812 226.109375 -283.28125 C 228.535156 -275.3125 229.75 -266.304688 229.75 -256.265625 L 229.75 -239.109375 C 229.75 -231.484375 229.140625 -224.722656 227.921875 -218.828125 C 226.710938 -212.941406 222.125 -210 214.15625 -210 L 210.515625 -210 C 209.128906 -212.070312 207.914062 -213.628906 206.875 -214.671875 C 202.375 -218.484375 197.175781 -220.390625 191.28125 -220.390625 C 189.207031 -220.734375 186.347656 -220.90625 182.703125 -220.90625 C 179.066406 -220.90625 174.648438 -220.90625 169.453125 -220.90625 L 169.453125 -226.109375 L 178.8125 -226.109375 C 180.882812 -226.109375 182.960938 -226.191406 185.046875 -226.359375 C 187.128906 -226.535156 189.382812 -226.625 191.8125 -226.625 C 200.8125 -227.320312 206.695312 -229.835938 209.46875 -234.171875 C 212.25 -238.503906 213.550781 -243.613281 213.375 -249.5 C 213.195312 -255.394531 213.109375 -260.59375 213.109375 -265.09375 C 213.109375 -274.101562 213.109375 -281.035156 213.109375 -285.890625 C 213.109375 -290.742188 212.847656 -295.070312 212.328125 -298.875 C 211.816406 -302.6875 210.691406 -307.191406 208.953125 -312.390625 Z M 112.796875 -85.25 C 112.796875 -82.820312 112.796875 -80.394531 112.796875 -77.96875 C 112.796875 -75.539062 112.96875 -73.289062 113.3125 -71.21875 C 106.726562 -71.90625 102.222656 -76.234375 99.796875 -84.203125 L 99.796875 -84.734375 C 97.367188 -90.960938 96.15625 -99.796875 96.15625 -111.234375 L 96.15625 -256.78125 C 96.15625 -280.34375 101.875 -292.988281 113.3125 -294.71875 C 117.820312 -295.414062 121.804688 -294.207031 125.265625 -291.09375 C 120.765625 -288.664062 117.644531 -284.160156 115.90625 -277.578125 C 114.175781 -270.992188 113.222656 -263.453125 113.046875 -254.953125 C 112.878906 -246.460938 112.796875 -238.410156 112.796875 -230.796875 Z M 230.265625 -158.53125 C 230.265625 -134.28125 230.175781 -114.097656 230 -97.984375 C 229.832031 -81.867188 229.140625 -68.523438 227.921875 -57.953125 C 226.710938 -47.390625 224.632812 -38.554688 221.6875 -31.453125 C 218.75 -24.347656 214.679688 -18.019531 209.484375 -12.46875 C 204.285156 -6.925781 197.523438 -0.691406 189.203125 6.234375 C 173.265625 19.054688 153.859375 25.46875 130.984375 25.46875 C 121.628906 25.46875 112.273438 23.390625 102.921875 19.234375 C 101.535156 18.535156 100.148438 17.835938 98.765625 17.140625 C 97.378906 16.453125 95.992188 15.585938 94.609375 14.546875 C 93.222656 13.859375 92.53125 12.820312 92.53125 11.4375 C 92.53125 10.050781 93.738281 9.703125 96.15625 10.390625 C 96.851562 10.742188 98.066406 11.003906 99.796875 11.171875 C 101.535156 11.347656 103.269531 11.609375 105 11.953125 C 118.164062 13.679688 131.421875 13.070312 144.765625 10.125 C 158.109375 7.1875 169.628906 1.734375 179.328125 -6.234375 C 186.953125 -12.472656 193.101562 -18.191406 197.78125 -23.390625 C 202.457031 -28.585938 206.09375 -34.738281 208.6875 -41.84375 C 211.289062 -48.945312 213.023438 -58.300781 213.890625 -69.90625 C 214.765625 -81.519531 215.113281 -96.507812 214.9375 -114.875 C 214.757812 -133.238281 214.328125 -156.628906 213.640625 -185.046875 L 216.75 -185.046875 C 220.914062 -185.046875 224.035156 -184.003906 226.109375 -181.921875 C 228.191406 -179.847656 229.40625 -177.164062 229.75 -173.875 C 230.09375 -170.582031 230.265625 -165.46875 230.265625 -158.53125 Z M 230.265625 -158.53125 "/></g></g></g></g></g></svg>